<svg width="856" height="468" viewBox="0 0 856 468" fill="none" xmlns="http://www.w3.org/2000/svg">
<g clip-path="url(#clip0_1_31)">
<rect width="856" height="468" fill="white"/>
<mask id="path-1-outside-1_1_31" maskUnits="userSpaceOnUse" x="23" y="28" width="785" height="226" fill="black">
<rect fill="white" x="23" y="28" width="785" height="226"/>
<path d="M98.4207 234H39.9458V44.5117H101.011C119.393 44.5117 135.122 48.3052 148.198 55.8921C161.275 63.4174 171.298 74.2426 178.269 88.3679C185.239 102.431 188.724 119.271 188.724 138.886C188.724 158.624 185.208 175.618 178.176 189.866C171.144 204.053 160.905 214.971 147.458 222.62C134.011 230.207 117.666 234 98.4207 234ZM62.8917 213.645H96.9404C112.608 213.645 125.592 210.622 135.893 204.578C146.194 198.533 153.873 189.928 158.931 178.763C163.989 167.599 166.518 154.306 166.518 138.886C166.518 123.589 164.02 110.419 159.024 99.3782C154.027 88.2754 146.564 79.7632 136.633 73.8417C126.702 67.8585 114.335 64.8669 99.531 64.8669H62.8917V213.645ZM283.838 236.961C270.145 236.961 258.332 233.938 248.401 227.893C238.532 221.787 230.915 213.275 225.548 202.357C220.243 191.377 217.591 178.609 217.591 164.052C217.591 149.495 220.243 136.665 225.548 125.562C230.915 114.398 238.378 105.701 247.939 99.4707C257.561 93.1791 268.787 90.0333 281.617 90.0333C289.019 90.0333 296.329 91.267 303.546 93.7343C310.762 96.2015 317.332 100.211 323.253 105.762C329.175 111.252 333.893 118.531 337.409 127.598C340.925 136.665 342.683 147.83 342.683 161.091V170.344H233.135V151.469H320.477C320.477 143.45 318.874 136.295 315.666 130.003C312.52 123.712 308.017 118.746 302.158 115.107C296.36 111.468 289.513 109.648 281.617 109.648C272.92 109.648 265.395 111.807 259.042 116.125C252.75 120.381 247.908 125.932 244.515 132.779C241.123 139.626 239.427 146.966 239.427 154.8V167.383C239.427 178.116 241.277 187.214 244.978 194.677C248.741 202.079 253.953 207.723 260.615 211.609C267.276 215.434 275.017 217.346 283.838 217.346C289.574 217.346 294.756 216.544 299.382 214.94C304.07 213.275 308.11 210.807 311.503 207.538C314.895 204.207 317.517 200.075 319.367 195.14L340.462 201.062C338.242 208.217 334.51 214.508 329.267 219.936C324.024 225.303 317.547 229.497 309.837 232.52C302.127 235.48 293.46 236.961 283.838 236.961ZM397.735 148.508V234H375.899V91.8838H396.994V114.089H398.845C402.176 106.873 407.234 101.074 414.019 96.695C420.804 92.2539 429.563 90.0333 440.295 90.0333C449.918 90.0333 458.337 92.0072 465.554 95.9548C472.771 99.8408 478.384 105.762 482.394 113.719C486.403 121.615 488.408 131.607 488.408 143.697V234H466.572V145.177C466.572 134.013 463.673 125.316 457.875 119.086C452.077 112.794 444.12 109.648 434.004 109.648C427.034 109.648 420.804 111.16 415.314 114.182C409.886 117.204 405.599 121.615 402.453 127.413C399.307 133.211 397.735 140.243 397.735 148.508ZM590.114 91.8838V110.388H516.465V91.8838H590.114ZM537.931 57.8351H559.766V193.29C559.766 199.458 560.661 204.084 562.45 207.168C564.3 210.191 566.644 212.226 569.481 213.275C572.38 214.262 575.434 214.755 578.641 214.755C581.047 214.755 583.021 214.632 584.563 214.385C586.105 214.077 587.338 213.83 588.264 213.645L592.705 233.26C591.224 233.815 589.158 234.37 586.506 234.925C583.853 235.542 580.492 235.85 576.421 235.85C570.252 235.85 564.208 234.524 558.286 231.872C552.426 229.22 547.553 225.179 543.667 219.751C539.843 214.323 537.931 207.477 537.931 199.211V57.8351ZM664.781 237.331C655.775 237.331 647.602 235.635 640.262 232.242C632.922 228.788 627.093 223.822 622.775 217.346C618.457 210.807 616.298 202.912 616.298 193.66C616.298 185.518 617.902 178.918 621.11 173.86C624.317 168.74 628.604 164.731 633.97 161.832C639.337 158.933 645.258 156.774 651.735 155.355C658.273 153.875 664.842 152.703 671.442 151.839C680.078 150.729 687.079 149.896 692.445 149.341C697.873 148.724 701.821 147.706 704.288 146.288C706.817 144.869 708.082 142.402 708.082 138.886V138.146C708.082 129.017 705.584 121.923 700.587 116.865C695.653 111.807 688.158 109.278 678.104 109.278C667.68 109.278 659.507 111.56 653.585 116.125C647.664 120.689 643.5 125.562 641.095 130.744L620.369 123.342C624.07 114.706 629.005 107.983 635.173 103.172C641.403 98.2988 648.188 94.9062 655.528 92.9941C662.93 91.0202 670.209 90.0333 677.364 90.0333C681.928 90.0333 687.171 90.5885 693.093 91.6987C699.076 92.7473 704.843 94.9371 710.395 98.2679C716.008 101.599 720.665 106.626 724.366 113.349C728.067 120.073 729.917 129.078 729.917 140.366V234H708.082V214.755H706.971C705.491 217.839 703.024 221.139 699.57 224.655C696.115 228.171 691.52 231.163 685.784 233.63C680.047 236.097 673.046 237.331 664.781 237.331ZM668.112 217.716C676.747 217.716 684.026 216.02 689.947 212.627C695.93 209.235 700.433 204.855 703.456 199.489C706.54 194.122 708.082 188.478 708.082 182.557V162.572C707.156 163.682 705.121 164.7 701.975 165.625C698.891 166.489 695.313 167.26 691.242 167.938C687.233 168.555 683.316 169.11 679.492 169.604C675.729 170.035 672.676 170.405 670.332 170.714C664.657 171.454 659.353 172.657 654.418 174.322C649.545 175.926 645.597 178.362 642.575 181.632C639.614 184.839 638.134 189.219 638.134 194.77C638.134 202.357 640.94 208.093 646.554 211.979C652.228 215.804 659.414 217.716 668.112 217.716ZM791.607 44.5117V234H769.772V44.5117H791.607Z"/>
</mask>
<path d="M98.4207 234H39.9458V44.5117H101.011C119.393 44.5117 135.122 48.3052 148.198 55.8921C161.275 63.4174 171.298 74.2426 178.269 88.3679C185.239 102.431 188.724 119.271 188.724 138.886C188.724 158.624 185.208 175.618 178.176 189.866C171.144 204.053 160.905 214.971 147.458 222.62C134.011 230.207 117.666 234 98.4207 234ZM62.8917 213.645H96.9404C112.608 213.645 125.592 210.622 135.893 204.578C146.194 198.533 153.873 189.928 158.931 178.763C163.989 167.599 166.518 154.306 166.518 138.886C166.518 123.589 164.02 110.419 159.024 99.3782C154.027 88.2754 146.564 79.7632 136.633 73.8417C126.702 67.8585 114.335 64.8669 99.531 64.8669H62.8917V213.645ZM283.838 236.961C270.145 236.961 258.332 233.938 248.401 227.893C238.532 221.787 230.915 213.275 225.548 202.357C220.243 191.377 217.591 178.609 217.591 164.052C217.591 149.495 220.243 136.665 225.548 125.562C230.915 114.398 238.378 105.701 247.939 99.4707C257.561 93.1791 268.787 90.0333 281.617 90.0333C289.019 90.0333 296.329 91.267 303.546 93.7343C310.762 96.2015 317.332 100.211 323.253 105.762C329.175 111.252 333.893 118.531 337.409 127.598C340.925 136.665 342.683 147.83 342.683 161.091V170.344H233.135V151.469H320.477C320.477 143.45 318.874 136.295 315.666 130.003C312.52 123.712 308.017 118.746 302.158 115.107C296.36 111.468 289.513 109.648 281.617 109.648C272.92 109.648 265.395 111.807 259.042 116.125C252.75 120.381 247.908 125.932 244.515 132.779C241.123 139.626 239.427 146.966 239.427 154.8V167.383C239.427 178.116 241.277 187.214 244.978 194.677C248.741 202.079 253.953 207.723 260.615 211.609C267.276 215.434 275.017 217.346 283.838 217.346C289.574 217.346 294.756 216.544 299.382 214.94C304.07 213.275 308.11 210.807 311.503 207.538C314.895 204.207 317.517 200.075 319.367 195.14L340.462 201.062C338.242 208.217 334.51 214.508 329.267 219.936C324.024 225.303 317.547 229.497 309.837 232.52C302.127 235.48 293.46 236.961 283.838 236.961ZM397.735 148.508V234H375.899V91.8838H396.994V114.089H398.845C402.176 106.873 407.234 101.074 414.019 96.695C420.804 92.2539 429.563 90.0333 440.295 90.0333C449.918 90.0333 458.337 92.0072 465.554 95.9548C472.771 99.8408 478.384 105.762 482.394 113.719C486.403 121.615 488.408 131.607 488.408 143.697V234H466.572V145.177C466.572 134.013 463.673 125.316 457.875 119.086C452.077 112.794 444.12 109.648 434.004 109.648C427.034 109.648 420.804 111.16 415.314 114.182C409.886 117.204 405.599 121.615 402.453 127.413C399.307 133.211 397.735 140.243 397.735 148.508ZM590.114 91.8838V110.388H516.465V91.8838H590.114ZM537.931 57.8351H559.766V193.29C559.766 199.458 560.661 204.084 562.45 207.168C564.3 210.191 566.644 212.226 569.481 213.275C572.38 214.262 575.434 214.755 578.641 214.755C581.047 214.755 583.021 214.632 584.563 214.385C586.105 214.077 587.338 213.83 588.264 213.645L592.705 233.26C591.224 233.815 589.158 234.37 586.506 234.925C583.853 235.542 580.492 235.85 576.421 235.85C570.252 235.85 564.208 234.524 558.286 231.872C552.426 229.22 547.553 225.179 543.667 219.751C539.843 214.323 537.931 207.477 537.931 199.211V57.8351ZM664.781 237.331C655.775 237.331 647.602 235.635 640.262 232.242C632.922 228.788 627.093 223.822 622.775 217.346C618.457 210.807 616.298 202.912 616.298 193.66C616.298 185.518 617.902 178.918 621.11 173.86C624.317 168.74 628.604 164.731 633.97 161.832C639.337 158.933 645.258 156.774 651.735 155.355C658.273 153.875 664.842 152.703 671.442 151.839C680.078 150.729 687.079 149.896 692.445 149.341C697.873 148.724 701.821 147.706 704.288 146.288C706.817 144.869 708.082 142.402 708.082 138.886V138.146C708.082 129.017 705.584 121.923 700.587 116.865C695.653 111.807 688.158 109.278 678.104 109.278C667.68 109.278 659.507 111.56 653.585 116.125C647.664 120.689 643.5 125.562 641.095 130.744L620.369 123.342C624.07 114.706 629.005 107.983 635.173 103.172C641.403 98.2988 648.188 94.9062 655.528 92.9941C662.93 91.0202 670.209 90.0333 677.364 90.0333C681.928 90.0333 687.171 90.5885 693.093 91.6987C699.076 92.7473 704.843 94.9371 710.395 98.2679C716.008 101.599 720.665 106.626 724.366 113.349C728.067 120.073 729.917 129.078 729.917 140.366V234H708.082V214.755H706.971C705.491 217.839 703.024 221.139 699.57 224.655C696.115 228.171 691.52 231.163 685.784 233.63C680.047 236.097 673.046 237.331 664.781 237.331ZM668.112 217.716C676.747 217.716 684.026 216.02 689.947 212.627C695.93 209.235 700.433 204.855 703.456 199.489C706.54 194.122 708.082 188.478 708.082 182.557V162.572C707.156 163.682 705.121 164.7 701.975 165.625C698.891 166.489 695.313 167.26 691.242 167.938C687.233 168.555 683.316 169.11 679.492 169.604C675.729 170.035 672.676 170.405 670.332 170.714C664.657 171.454 659.353 172.657 654.418 174.322C649.545 175.926 645.597 178.362 642.575 181.632C639.614 184.839 638.134 189.219 638.134 194.77C638.134 202.357 640.94 208.093 646.554 211.979C652.228 215.804 659.414 217.716 668.112 217.716ZM791.607 44.5117V234H769.772V44.5117H791.607Z" fill="black"/>
<path d="M39.9458 234H23.6617V250.284H39.9458V234ZM39.9458 44.5117V28.2276H23.6617V44.5117H39.9458ZM148.198 55.8921L140.026 69.9773L140.051 69.9917L140.076 70.0061L148.198 55.8921ZM178.269 88.3679L163.666 95.5738L163.672 95.5865L163.678 95.5992L178.269 88.3679ZM178.176 189.866L192.766 197.098L192.773 197.085L192.779 197.073L178.176 189.866ZM147.458 222.62L155.46 236.802L155.485 236.788L155.509 236.774L147.458 222.62ZM62.8917 213.645H46.6075V229.929H62.8917V213.645ZM135.893 204.577L127.651 190.533L135.893 204.577ZM159.024 99.3782L144.174 106.061L144.181 106.076L144.188 106.092L159.024 99.3782ZM136.633 73.8417L128.229 87.7899L128.261 87.8091L128.293 87.8282L136.633 73.8417ZM62.8917 64.8669V48.5827H46.6075V64.8669H62.8917ZM98.4207 234V217.716H39.9458V234V250.284H98.4207V234ZM39.9458 234H56.23V44.5117H39.9458H23.6617V234H39.9458ZM39.9458 44.5117V60.7959H101.011V44.5117V28.2276H39.9458V44.5117ZM101.011 44.5117V60.7959C117.14 60.7959 129.917 64.112 140.026 69.9773L148.198 55.8921L156.37 41.807C140.326 32.4984 121.645 28.2276 101.011 28.2276V44.5117ZM148.198 55.8921L140.076 70.0061C150.228 75.8484 158.057 84.2079 163.666 95.5738L178.269 88.3679L192.872 81.162C184.54 64.2774 172.322 50.9863 156.321 41.7782L148.198 55.8921ZM178.269 88.3679L163.678 95.5992C169.291 106.925 172.44 121.168 172.44 138.886H188.724H205.008C205.008 117.374 201.186 97.9384 192.859 81.1366L178.269 88.3679ZM188.724 138.886H172.44C172.44 156.717 169.264 171.129 163.573 182.66L178.176 189.866L192.779 197.073C201.152 180.106 205.008 160.531 205.008 138.886H188.724ZM178.176 189.866L163.586 182.635C157.959 193.987 149.963 202.461 139.407 208.465L147.458 222.62L155.509 236.774C171.847 227.481 184.329 214.12 192.766 197.098L178.176 189.866ZM147.458 222.62L139.456 208.437C128.984 214.346 115.544 217.716 98.4207 217.716V234V250.284C119.787 250.284 139.039 246.067 155.46 236.802L147.458 222.62ZM62.8917 213.645V229.929H96.9404V213.645V197.361H62.8917V213.645ZM96.9404 213.645V229.929C114.626 229.929 130.672 226.522 144.134 218.622L135.893 204.577L127.651 190.533C120.512 194.722 110.59 197.361 96.9404 197.361V213.645ZM135.893 204.577L144.134 218.622C157.416 210.828 167.357 199.626 173.764 185.483L158.931 178.763L144.098 172.044C140.389 180.23 134.971 186.237 127.651 190.533L135.893 204.577ZM158.931 178.763L173.764 185.483C179.992 171.737 182.802 156.045 182.802 138.886H166.518H150.234C150.234 152.568 147.986 163.461 144.098 172.044L158.931 178.763ZM166.518 138.886H182.802C182.802 121.861 180.026 106.292 173.86 92.6648L159.024 99.3782L144.188 106.092C148.014 114.547 150.234 125.316 150.234 138.886H166.518ZM159.024 99.3782L173.874 92.6958C167.584 78.7195 157.928 67.5801 144.973 59.8552L136.633 73.8417L128.293 87.8282C135.2 91.9463 140.471 97.8313 144.174 106.061L159.024 99.3782ZM136.633 73.8417L145.037 59.8934C131.957 52.013 116.489 48.5827 99.531 48.5827V64.8669V81.151C112.181 81.151 121.448 83.704 128.229 87.7899L136.633 73.8417ZM99.531 64.8669V48.5827H62.8917V64.8669V81.151H99.531V64.8669ZM62.8917 64.8669H46.6075V213.645H62.8917H79.1758V64.8669H62.8917ZM248.401 227.893L239.833 241.741L239.884 241.772L239.935 241.803L248.401 227.893ZM225.548 202.357L210.886 209.441L210.91 209.491L210.934 209.54L225.548 202.357ZM225.548 125.562L210.871 118.508L210.863 118.525L210.855 118.542L225.548 125.562ZM247.939 99.4707L256.829 113.114L256.84 113.107L256.85 113.1L247.939 99.4707ZM303.546 93.7343L308.813 78.3257V78.3257L303.546 93.7343ZM323.253 105.762L312.116 117.642L312.149 117.673L312.182 117.704L323.253 105.762ZM337.409 127.598L352.592 121.711V121.711L337.409 127.598ZM342.683 170.344V186.628H358.967V170.344H342.683ZM233.135 170.344H216.851V186.628H233.135V170.344ZM233.135 151.469V135.185H216.851V151.469H233.135ZM320.477 151.469V167.753H336.761V151.469H320.477ZM315.666 130.003L301.101 137.286L301.13 137.343L301.158 137.4L315.666 130.003ZM302.158 115.107L293.501 128.9L293.534 128.92L293.566 128.941L302.158 115.107ZM259.042 116.125L268.166 129.613L268.18 129.603L268.195 129.593L259.042 116.125ZM244.515 132.779L229.924 125.549V125.549L244.515 132.779ZM244.978 194.677L230.389 201.912L230.425 201.984L230.462 202.057L244.978 194.677ZM260.615 211.609L252.409 225.675L252.458 225.704L252.507 225.732L260.615 211.609ZM299.382 214.94L304.716 230.326L304.775 230.306L304.833 230.285L299.382 214.94ZM311.503 207.538L322.802 219.264L322.857 219.211L322.911 219.158L311.503 207.538ZM319.367 195.14L323.768 179.462L309.37 175.421L304.12 189.422L319.367 195.14ZM340.462 201.062L356.015 205.888L360.975 189.906L344.863 185.383L340.462 201.062ZM329.267 219.936L340.915 231.316L340.947 231.283L340.98 231.25L329.267 219.936ZM309.837 232.52L315.675 247.721L315.727 247.701L315.78 247.681L309.837 232.52ZM283.838 236.961V220.677C272.594 220.677 263.825 218.218 256.868 213.984L248.401 227.893L239.935 241.803C252.84 249.659 267.695 253.245 283.838 253.245V236.961ZM248.401 227.893L256.97 214.046C249.83 209.628 244.248 203.485 240.162 195.174L225.548 202.357L210.934 209.54C217.581 223.064 227.234 233.946 239.833 241.741L248.401 227.893ZM225.548 202.357L240.211 195.273C236.161 186.89 233.875 176.626 233.875 164.052H217.591H201.307C201.307 180.592 204.326 195.865 210.886 209.441L225.548 202.357ZM217.591 164.052H233.875C233.875 151.484 236.159 141.128 240.241 132.582L225.548 125.562L210.855 118.542C204.328 132.203 201.307 147.506 201.307 164.052H217.591ZM225.548 125.562L240.225 132.617C244.415 123.899 249.975 117.58 256.829 113.114L247.939 99.4707L239.049 85.8274C226.781 93.8214 217.414 104.897 210.871 118.508L225.548 125.562ZM247.939 99.4707L256.85 113.1C263.522 108.738 271.573 106.317 281.617 106.317V90.0333V73.7492C266.002 73.7492 251.6 77.6207 239.027 85.8414L247.939 99.4707ZM281.617 90.0333V106.317C287.173 106.317 292.704 107.237 298.278 109.143L303.546 93.7343L308.813 78.3257C299.953 75.2965 290.866 73.7492 281.617 73.7492V90.0333ZM303.546 93.7343L298.278 109.143C303.172 110.816 307.768 113.567 312.116 117.642L323.253 105.762L334.39 93.8824C326.895 86.8553 318.353 81.5872 308.813 78.3257L303.546 93.7343ZM323.253 105.762L312.182 117.704C315.958 121.205 319.424 126.257 322.226 133.485L337.409 127.598L352.592 121.711C348.363 110.804 342.391 101.299 334.324 93.8205L323.253 105.762ZM337.409 127.598L322.226 133.485C324.802 140.128 326.399 149.159 326.399 161.091H342.683H358.967C358.967 146.501 357.048 133.202 352.592 121.711L337.409 127.598ZM342.683 161.091H326.399V170.344H342.683H358.967V161.091H342.683ZM342.683 170.344V154.06H233.135V170.344V186.628H342.683V170.344ZM233.135 170.344H249.419V151.469H233.135H216.851V170.344H233.135ZM233.135 151.469V167.753H320.477V151.469V135.185H233.135V151.469ZM320.477 151.469H336.761C336.761 141.23 334.699 131.483 330.174 122.607L315.666 130.003L301.158 137.4C303.049 141.107 304.193 145.67 304.193 151.469H320.477ZM315.666 130.003L330.231 122.721C325.766 113.791 319.22 106.535 310.749 101.274L302.158 115.107L293.566 128.941C296.815 130.958 299.274 133.632 301.101 137.286L315.666 130.003ZM302.158 115.107L310.815 101.315C302.044 95.81 292.096 93.3642 281.617 93.3642V109.648V125.932C286.93 125.932 290.675 127.126 293.501 128.9L302.158 115.107ZM281.617 109.648V93.3642C270.103 93.3642 259.289 96.2681 249.889 102.657L259.042 116.125L268.195 129.593C271.501 127.346 275.738 125.932 281.617 125.932V109.648ZM259.042 116.125L249.918 102.637C241.279 108.481 234.559 116.195 229.924 125.549L244.515 132.779L259.107 140.009C261.257 135.67 264.222 132.281 268.166 129.613L259.042 116.125ZM244.515 132.779L229.924 125.549C225.39 134.701 223.143 144.523 223.143 154.8H239.427H255.711C255.711 149.409 256.856 144.551 259.107 140.009L244.515 132.779ZM239.427 154.8H223.143V167.383H239.427H255.711V154.8H239.427ZM239.427 167.383H223.143C223.143 179.926 225.299 191.647 230.389 201.912L244.978 194.677L259.567 187.443C257.255 182.781 255.711 176.305 255.711 167.383H239.427ZM244.978 194.677L230.462 202.057C235.529 212.024 242.837 220.091 252.409 225.675L260.615 211.609L268.82 197.543C265.069 195.355 261.953 192.135 259.494 187.298L244.978 194.677ZM260.615 211.609L252.507 225.732C261.982 231.171 272.6 233.63 283.838 233.63V217.346V201.062C277.434 201.062 272.57 199.696 268.722 197.487L260.615 211.609ZM283.838 217.346V233.63C291.085 233.63 298.108 232.617 304.716 230.326L299.382 214.94L294.048 199.554C291.403 200.471 288.063 201.062 283.838 201.062V217.346ZM299.382 214.94L304.833 230.285C311.581 227.887 317.647 224.231 322.802 219.264L311.503 207.538L300.203 195.812C298.573 197.383 296.558 198.662 293.931 199.596L299.382 214.94ZM311.503 207.538L322.911 219.158C328.174 213.99 332.021 207.773 334.614 200.858L319.367 195.14L304.12 189.422C303.012 192.377 301.616 194.424 300.094 195.918L311.503 207.538ZM319.367 195.14L314.966 210.818L336.062 216.74L340.462 201.062L344.863 185.383L323.768 179.462L319.367 195.14ZM340.462 201.062L324.91 196.235C323.45 200.939 321.041 205.013 317.555 208.623L329.267 219.936L340.98 231.25C347.979 224.003 353.034 215.495 356.015 205.888L340.462 201.062ZM329.267 219.936L317.619 208.556C314.149 212.108 309.681 215.09 303.894 217.359L309.837 232.52L315.78 247.681C325.414 243.904 333.899 238.497 340.915 231.316L329.267 219.936ZM309.837 232.52L304 217.318C298.433 219.455 291.789 220.677 283.838 220.677V236.961V253.245C295.132 253.245 305.821 251.505 315.675 247.721L309.837 232.52ZM397.734 234V250.284H414.019V234H397.734ZM375.899 234H359.615V250.284H375.899V234ZM375.899 91.8838V75.5996H359.615V91.8838H375.899ZM396.994 91.8838H413.278V75.5996H396.994V91.8838ZM396.994 114.089H380.71V130.374H396.994V114.089ZM398.845 114.089V130.374H409.264L413.63 120.913L398.845 114.089ZM414.019 96.695L422.85 110.377L422.893 110.348L422.937 110.32L414.019 96.695ZM465.554 95.9548L457.74 110.241L457.787 110.267L457.834 110.293L465.554 95.9548ZM482.394 113.719L467.851 121.047L467.863 121.07L467.874 121.092L482.394 113.719ZM488.408 234V250.284H504.692V234H488.408ZM466.572 234H450.288V250.284H466.572V234ZM457.875 119.086L445.9 130.121L445.927 130.151L445.955 130.18L457.875 119.086ZM415.314 114.182L407.46 99.9169L407.426 99.9357L407.392 99.9547L415.314 114.182ZM402.453 127.413L388.14 119.647L402.453 127.413ZM397.734 148.508H381.45V234H397.734H414.019V148.508H397.734ZM397.734 234V217.716H375.899V234V250.284H397.734V234ZM375.899 234H392.183V91.8838H375.899H359.615V234H375.899ZM375.899 91.8838V108.168H396.994V91.8838V75.5996H375.899V91.8838ZM396.994 91.8838H380.71V114.089H396.994H413.278V91.8838H396.994ZM396.994 114.089V130.374H398.845V114.089V97.8053H396.994V114.089ZM398.845 114.089L413.63 120.913C415.645 116.548 418.616 113.11 422.85 110.377L414.019 96.695L405.188 83.0133C395.852 89.0393 388.706 97.1971 384.059 107.265L398.845 114.089ZM414.019 96.695L422.937 110.32C426.34 108.093 431.726 106.317 440.295 106.317V90.0333V73.7492C427.4 73.7492 415.268 76.415 405.1 83.07L414.019 96.695ZM440.295 90.0333V106.317C447.652 106.317 453.297 107.811 457.74 110.241L465.554 95.9548L473.369 81.6684C463.378 76.2033 452.183 73.7492 440.295 73.7492V90.0333ZM465.554 95.9548L457.834 110.293C461.854 112.457 465.206 115.798 467.851 121.047L482.394 113.719L496.936 106.392C491.562 95.7267 483.688 87.2242 473.275 81.6171L465.554 95.9548ZM482.394 113.719L467.874 121.092C470.379 126.025 472.123 133.281 472.123 143.697H488.408H504.692C504.692 129.933 502.427 117.205 496.913 106.346L482.394 113.719ZM488.408 143.697H472.123V234H488.408H504.692V143.697H488.408ZM488.408 234V217.716H466.572V234V250.284H488.408V234ZM466.572 234H482.856V145.177H466.572H450.288V234H466.572ZM466.572 145.177H482.856C482.856 131.216 479.183 118.079 469.795 107.992L457.875 119.086L445.955 130.18C448.163 132.552 450.288 136.81 450.288 145.177H466.572ZM457.875 119.086L469.849 108.05C460.405 97.8018 447.765 93.3642 434.004 93.3642V109.648V125.932C440.474 125.932 443.749 127.786 445.9 130.121L457.875 119.086ZM434.004 109.648V93.3642C424.602 93.3642 415.617 95.4262 407.46 99.9169L415.314 114.182L423.168 128.447C425.991 126.893 429.466 125.932 434.004 125.932V109.648ZM415.314 114.182L407.392 99.9547C399.094 104.575 392.665 111.308 388.14 119.647L402.453 127.413L416.766 135.179C418.534 131.922 420.678 129.834 423.236 128.409L415.314 114.182ZM402.453 127.413L388.14 119.647C383.414 128.359 381.45 138.204 381.45 148.508H397.734H414.019C414.019 142.281 415.201 138.063 416.766 135.179L402.453 127.413ZM590.114 91.8838H606.398V75.5996H590.114V91.8838ZM590.114 110.389V126.673H606.398V110.389H590.114ZM516.465 110.389H500.181V126.673H516.465V110.389ZM516.465 91.8838V75.5996H500.181V91.8838H516.465ZM537.931 57.8351V41.551H521.647V57.8351H537.931ZM559.766 57.8351H576.051V41.551H559.766V57.8351ZM562.45 207.168L548.363 215.338L548.461 215.506L548.562 215.671L562.45 207.168ZM569.481 213.275L563.836 228.549L564.034 228.622L564.234 228.69L569.481 213.275ZM584.563 214.385L587.135 230.465L587.447 230.415L587.756 230.353L584.563 214.385ZM588.264 213.645L604.146 210.049L600.64 194.563L585.07 197.677L588.264 213.645ZM592.705 233.26L598.423 248.507L611.724 243.519L608.587 229.664L592.705 233.26ZM586.506 234.925L583.17 218.986L582.993 219.023L582.817 219.064L586.506 234.925ZM558.286 231.872L551.571 246.707L551.6 246.72L551.629 246.733L558.286 231.872ZM543.667 219.751L530.355 229.13L530.391 229.181L530.427 229.231L543.667 219.751ZM590.114 91.8838H573.83V110.389H590.114H606.398V91.8838H590.114ZM590.114 110.389V94.1043H516.465V110.389V126.673H590.114V110.389ZM516.465 110.389H532.75V91.8838H516.465H500.181V110.389H516.465ZM516.465 91.8838V108.168H590.114V91.8838V75.5996H516.465V91.8838ZM537.931 57.8351V74.1193H559.766V57.8351V41.551H537.931V57.8351ZM559.766 57.8351H543.482V193.29H559.766H576.051V57.8351H559.766ZM559.766 193.29H543.482C543.482 200.499 544.434 208.563 548.363 215.338L562.45 207.168L576.536 198.998C576.795 199.445 576.631 199.361 576.425 198.294C576.225 197.256 576.051 195.635 576.051 193.29H559.766ZM562.45 207.168L548.562 215.671C551.98 221.254 557.002 226.023 563.836 228.549L569.481 213.275L575.126 198C575.6 198.175 576 198.43 576.273 198.667C576.522 198.883 576.514 198.953 576.338 198.665L562.45 207.168ZM569.481 213.275L564.234 228.69C568.901 230.279 573.734 231.039 578.641 231.039V214.755V198.471C577.134 198.471 575.86 198.244 574.729 197.859L569.481 213.275ZM578.641 214.755V231.039C581.501 231.039 584.418 230.899 587.135 230.465L584.563 214.385L581.99 198.305C581.624 198.364 580.593 198.471 578.641 198.471V214.755ZM584.563 214.385L587.756 230.353C589.298 230.045 590.532 229.798 591.457 229.613L588.264 213.645L585.07 197.677C584.145 197.862 582.911 198.109 581.369 198.417L584.563 214.385ZM588.264 213.645L572.382 217.241L576.823 236.856L592.705 233.26L608.587 229.664L604.146 210.049L588.264 213.645ZM592.705 233.26L586.987 218.012C586.638 218.144 585.496 218.5 583.17 218.986L586.506 234.925L589.842 250.864C592.82 250.241 595.811 249.486 598.423 248.507L592.705 233.26ZM586.506 234.925L582.817 219.064C581.811 219.298 579.797 219.566 576.421 219.566V235.85V252.135C581.187 252.135 585.896 251.786 590.194 250.786L586.506 234.925ZM576.421 235.85V219.566C572.665 219.566 568.881 218.775 564.943 217.011L558.286 231.872L551.629 246.733C559.534 250.274 567.84 252.135 576.421 252.135V235.85ZM558.286 231.872L565.001 217.037C561.851 215.611 559.193 213.464 556.908 210.272L543.667 219.751L530.427 229.231C535.913 236.895 543.002 242.828 551.571 246.707L558.286 231.872ZM543.667 219.751L556.979 210.372C555.517 208.298 554.215 204.948 554.215 199.211H537.931H521.647C521.647 210.005 524.169 220.349 530.355 229.13L543.667 219.751ZM537.931 199.211H554.215V57.8351H537.931H521.647V199.211H537.931ZM640.262 232.242L633.328 246.976L633.379 247L633.43 247.024L640.262 232.242ZM622.775 217.346L609.186 226.319L609.206 226.349L609.226 226.379L622.775 217.346ZM621.11 173.86L634.862 182.581L634.885 182.543L634.909 182.505L621.11 173.86ZM651.735 155.355L655.219 171.262L655.275 171.25L655.331 171.237L651.735 155.355ZM671.442 151.839L669.366 135.688L669.348 135.69L669.33 135.693L671.442 151.839ZM692.445 149.341L694.121 165.539L694.202 165.53L694.284 165.521L692.445 149.341ZM704.288 146.288L696.321 132.086L696.246 132.128L696.171 132.171L704.288 146.288ZM700.587 116.865L688.931 128.237L688.967 128.273L689.002 128.309L700.587 116.865ZM653.585 116.125L663.527 129.022L653.585 116.125ZM641.095 130.744L635.618 146.079L649.608 151.076L655.865 137.601L641.095 130.744ZM620.369 123.342L605.402 116.927L598.578 132.851L614.892 138.677L620.369 123.342ZM635.173 103.172L645.188 116.012L645.197 116.005L645.206 115.998L635.173 103.172ZM655.528 92.9941L659.633 108.752L659.679 108.74L659.724 108.728L655.528 92.9941ZM693.093 91.6987L690.092 107.704L690.187 107.722L690.282 107.738L693.093 91.6987ZM710.395 98.2679L702.017 112.231L702.051 112.252L702.085 112.272L710.395 98.2679ZM724.366 113.349L710.1 121.202L724.366 113.349ZM729.917 234V250.284H746.201V234H729.917ZM708.082 234H691.798V250.284H708.082V234ZM708.082 214.755H724.366V198.471H708.082V214.755ZM706.971 214.755V198.471H696.725L692.291 207.708L706.971 214.755ZM699.57 224.655L711.186 236.067V236.067L699.57 224.655ZM685.784 233.63L679.349 218.671L685.784 233.63ZM689.947 212.627L681.915 198.462L681.884 198.479L681.852 198.498L689.947 212.627ZM703.456 199.489L689.337 191.375L689.302 191.436L689.267 191.497L703.456 199.489ZM708.082 162.572H724.366V117.594L695.572 152.147L708.082 162.572ZM701.975 165.625L706.366 181.306L706.468 181.277L706.57 181.248L701.975 165.625ZM691.242 167.938L693.719 184.033L693.819 184.017L693.919 184.001L691.242 167.938ZM679.492 169.604L681.348 185.782L681.462 185.769L681.576 185.754L679.492 169.604ZM670.332 170.714L672.438 186.861L672.447 186.86L672.456 186.859L670.332 170.714ZM654.418 174.322L659.509 189.79L659.567 189.771L659.625 189.751L654.418 174.322ZM642.575 181.632L630.618 170.577L630.609 170.586L642.575 181.632ZM646.554 211.979L637.284 225.368L637.368 225.426L637.453 225.483L646.554 211.979ZM664.781 237.331V221.047C657.864 221.047 652.06 219.756 647.094 217.46L640.262 232.242L633.43 247.024C643.144 251.513 653.686 253.615 664.781 253.615V237.331ZM640.262 232.242L647.196 217.508C642.42 215.261 638.926 212.216 636.324 208.313L622.775 217.346L609.226 226.379C615.26 235.429 623.423 242.315 633.328 246.976L640.262 232.242ZM622.775 217.346L636.364 208.372C634.102 204.948 632.582 200.309 632.582 193.66H616.298H600.014C600.014 205.515 602.812 216.667 609.186 226.319L622.775 217.346ZM616.298 193.66H632.582C632.582 187.531 633.802 184.251 634.862 182.581L621.11 173.86L607.357 165.139C602.002 173.584 600.014 183.505 600.014 193.66H616.298ZM621.11 173.86L634.909 182.505C636.607 179.795 638.796 177.733 641.71 176.159L633.97 161.832L626.23 147.504C618.412 151.728 612.027 157.685 607.31 165.214L621.11 173.86ZM633.97 161.832L641.71 176.159C645.628 174.042 650.1 172.383 655.219 171.262L651.735 155.355L648.25 139.448C640.417 141.164 633.045 143.823 626.23 147.504L633.97 161.832ZM651.735 155.355L655.331 171.237C661.383 169.867 667.457 168.783 673.555 167.986L671.442 151.839L669.33 135.693C662.228 136.622 655.164 137.882 648.139 139.473L651.735 155.355ZM671.442 151.839L673.519 167.99C682.091 166.888 688.944 166.074 694.121 165.539L692.445 149.341L690.77 133.143C685.214 133.718 678.065 134.569 669.366 135.688L671.442 151.839ZM692.445 149.341L694.284 165.521C700.263 164.841 706.953 163.539 712.405 160.404L704.288 146.288L696.171 132.171C696.625 131.91 696.523 132.06 695.412 132.346C694.368 132.616 692.805 132.911 690.607 133.161L692.445 149.341ZM704.288 146.288L712.255 160.49C721.094 155.531 724.366 146.811 724.366 138.886H708.082H691.798C691.798 138.736 691.822 137.544 692.642 135.946C693.54 134.194 694.927 132.868 696.321 132.086L704.288 146.288ZM708.082 138.886H724.366V138.146H708.082H691.798V138.886H708.082ZM708.082 138.146H724.366C724.366 126.004 720.968 114.326 712.172 105.421L700.587 116.865L689.002 128.309C690.199 129.52 691.798 132.029 691.798 138.146H708.082ZM700.587 116.865L712.243 105.494C703.142 96.165 690.668 92.9941 678.104 92.9941V109.278V125.562C685.649 125.562 688.163 127.449 688.931 128.237L700.587 116.865ZM678.104 109.278V92.9941C665.473 92.9941 653.348 95.7474 643.644 103.228L653.585 116.125L663.527 129.022C665.666 127.374 669.886 125.562 678.104 125.562V109.278ZM653.585 116.125L643.644 103.228C636.268 108.913 630.118 115.715 626.325 123.886L641.095 130.744L655.865 137.601C656.882 135.41 659.059 132.466 663.527 129.022L653.585 116.125ZM641.095 130.744L646.572 115.408L625.846 108.006L620.369 123.342L614.892 138.677L635.618 146.079L641.095 130.744ZM620.369 123.342L635.337 129.756C638.172 123.14 641.583 118.824 645.188 116.012L635.173 103.172L625.158 90.3316C616.427 97.1415 609.968 106.272 605.402 116.927L620.369 123.342ZM635.173 103.172L645.206 115.998C649.758 112.438 654.541 110.079 659.633 108.752L655.528 92.9941L651.423 77.2358C641.835 79.7335 633.048 84.1597 625.141 90.3451L635.173 103.172ZM655.528 92.9941L659.724 108.728C665.853 107.094 671.721 106.317 677.364 106.317V90.0333V73.7492C668.696 73.7492 660.007 74.9466 651.333 77.2598L655.528 92.9941ZM677.364 90.0333V106.317C680.661 106.317 684.866 106.724 690.092 107.704L693.093 91.6987L696.094 75.6935C689.476 74.4527 683.195 73.7492 677.364 73.7492V90.0333ZM693.093 91.6987L690.282 107.738C694.171 108.42 698.064 109.86 702.017 112.231L710.395 98.2679L718.773 84.3044C711.622 80.0141 703.981 77.0746 695.904 75.659L693.093 91.6987ZM710.395 98.2679L702.085 112.272C704.791 113.878 707.552 116.572 710.1 121.202L724.366 113.349L738.632 105.497C733.778 96.6798 727.225 89.3198 718.705 84.2638L710.395 98.2679ZM724.366 113.349L710.1 121.202C711.998 124.651 713.633 130.623 713.633 140.366H729.917H746.201C746.201 127.533 744.135 115.495 738.632 105.497L724.366 113.349ZM729.917 140.366H713.633V234H729.917H746.201V140.366H729.917ZM729.917 234V217.716H708.082V234V250.284H729.917V234ZM708.082 234H724.366V214.755H708.082H691.798V234H708.082ZM708.082 214.755V198.471H706.971V214.755V231.039H708.082V214.755ZM706.971 214.755L692.291 207.708C691.845 208.638 690.657 210.491 687.953 213.243L699.57 224.655L711.186 236.067C715.39 231.788 719.137 227.041 721.652 221.802L706.971 214.755ZM699.57 224.655L687.953 213.243C686.318 214.908 683.643 216.824 679.349 218.671L685.784 233.63L692.218 248.589C699.397 245.501 705.913 241.434 711.186 236.067L699.57 224.655ZM685.784 233.63L679.349 218.671C676.189 220.03 671.513 221.047 664.781 221.047V237.331V253.615C674.579 253.615 683.906 252.164 692.218 248.589L685.784 233.63ZM668.112 217.716V234C678.846 234 689.084 231.889 698.042 226.757L689.947 212.627L681.852 198.498C678.967 200.151 674.648 201.432 668.112 201.432V217.716ZM689.947 212.627L697.979 226.793C706.229 222.115 713.004 215.718 717.644 207.48L703.456 199.489L689.267 191.497C687.862 193.992 685.632 196.354 681.915 198.462L689.947 212.627ZM703.456 199.489L717.574 207.603C722.01 199.884 724.366 191.457 724.366 182.557H708.082H691.798C691.798 185.5 691.069 188.361 689.337 191.375L703.456 199.489ZM708.082 182.557H724.366V162.572H708.082H691.798V182.557H708.082ZM708.082 162.572L695.572 152.147C696.414 151.136 697.206 150.502 697.676 150.164C698.157 149.818 698.494 149.645 698.579 149.603C698.709 149.538 698.394 149.704 697.38 150.003L701.975 165.625L706.57 181.248C708.702 180.621 710.978 179.816 713.144 178.733C715.142 177.733 718.102 175.984 720.592 172.997L708.082 162.572ZM701.975 165.625L697.584 149.944C695.198 150.612 692.214 151.267 688.565 151.876L691.242 167.938L693.919 184.001C698.413 183.252 702.584 182.365 706.366 181.306L701.975 165.625ZM691.242 167.938L688.766 151.843C684.881 152.441 681.095 152.978 677.408 153.453L679.492 169.604L681.576 185.754C685.538 185.243 689.585 184.669 693.719 184.033L691.242 167.938ZM679.492 169.604L677.635 153.426C673.83 153.862 670.677 154.244 668.208 154.569L670.332 170.714L672.456 186.859C674.675 186.567 677.629 186.208 681.348 185.782L679.492 169.604ZM670.332 170.714L668.226 154.566C661.599 155.431 655.246 156.856 649.211 158.893L654.418 174.322L659.625 189.751C663.459 188.458 667.716 187.477 672.438 186.861L670.332 170.714ZM654.418 174.322L649.327 158.854C642.232 161.19 635.786 164.987 630.618 170.577L642.575 181.632L654.532 192.686C655.409 191.738 656.858 190.663 659.509 189.79L654.418 174.322ZM642.575 181.632L630.609 170.586C624.177 177.554 621.85 186.279 621.85 194.77H638.134H654.418C654.418 193.422 654.599 192.748 654.671 192.536C654.723 192.381 654.701 192.503 654.541 192.677L642.575 181.632ZM638.134 194.77H621.85C621.85 207.006 626.736 218.065 637.284 225.368L646.554 211.979L655.823 198.591C655.143 198.12 654.961 197.801 654.866 197.606C654.739 197.347 654.418 196.545 654.418 194.77H638.134ZM646.554 211.979L637.453 225.483C646.462 231.554 657.048 234 668.112 234V217.716V201.432C661.781 201.432 657.995 200.053 655.654 198.475L646.554 211.979ZM791.607 44.5117H807.891V28.2276H791.607V44.5117ZM791.607 234V250.284H807.891V234H791.607ZM769.772 234H753.488V250.284H769.772V234ZM769.772 44.5117V28.2276H753.488V44.5117H769.772ZM791.607 44.5117H775.323V234H791.607H807.891V44.5117H791.607ZM791.607 234V217.716H769.772V234V250.284H791.607V234ZM769.772 234H786.056V44.5117H769.772H753.488V234H769.772ZM769.772 44.5117V60.7959H791.607V44.5117V28.2276H769.772V44.5117Z" fill="white" mask="url(#path-1-outside-1_1_31)"/>
<mask id="path-3-outside-2_1_31" maskUnits="userSpaceOnUse" x="165.356" y="211.303" width="681" height="232" fill="black">
<rect fill="white" x="165.356" y="211.303" width="681" height="232"/>
<path d="M341.781 293.03H318.835C317.478 286.43 315.103 280.632 311.711 275.636C308.38 270.639 304.309 266.445 299.498 263.052C294.748 259.598 289.474 257.008 283.676 255.28C277.878 253.553 271.833 252.69 265.541 252.69C254.069 252.69 243.675 255.589 234.361 261.387C225.109 267.185 217.738 275.728 212.248 287.016C206.82 298.304 204.106 312.152 204.106 328.559C204.106 344.967 206.82 358.814 212.248 370.102C217.738 381.39 225.109 389.933 234.361 395.731C243.675 401.529 254.069 404.428 265.541 404.428C271.833 404.428 277.878 403.565 283.676 401.838C289.474 400.111 294.748 397.551 299.498 394.158C304.309 390.704 308.38 386.479 311.711 381.483C315.103 376.425 317.478 370.626 318.835 364.088H341.781C340.054 373.772 336.908 382.439 332.343 390.087C327.779 397.736 322.104 404.243 315.319 409.61C308.534 414.914 300.916 418.955 292.466 421.73C284.077 424.506 275.102 425.894 265.541 425.894C249.381 425.894 235.009 421.946 222.425 414.051C209.842 406.156 199.942 394.929 192.725 380.372C185.509 365.815 181.9 348.544 181.9 328.559C181.9 308.574 185.509 291.303 192.725 276.746C199.942 262.189 209.842 250.963 222.425 243.067C235.009 235.172 249.381 231.224 265.541 231.224C275.102 231.224 284.077 232.612 292.466 235.388C300.916 238.164 308.534 242.235 315.319 247.601C322.104 252.906 327.779 259.382 332.343 267.031C336.908 274.618 340.054 283.284 341.781 293.03ZM397.735 233.815V423.303H375.899V233.815H397.735ZM437.728 423.303V281.187H459.563V423.303H437.728ZM448.831 257.501C444.575 257.501 440.905 256.051 437.82 253.152C434.798 250.253 433.287 246.768 433.287 242.697C433.287 238.626 434.798 235.141 437.82 232.242C440.905 229.343 444.575 227.893 448.831 227.893C453.087 227.893 456.726 229.343 459.748 232.242C462.833 235.141 464.375 238.626 464.375 242.697C464.375 246.768 462.833 250.253 459.748 253.152C456.726 256.051 453.087 257.501 448.831 257.501ZM521.392 337.811V423.303H499.557V281.187H520.652V303.393H522.503C525.833 296.176 530.891 290.378 537.676 285.998C544.462 281.557 553.22 279.337 563.953 279.337C573.576 279.337 581.995 281.31 589.212 285.258C596.429 289.144 602.042 295.066 606.051 303.023C610.061 310.918 612.065 320.91 612.065 333V423.303H590.23V334.481C590.23 323.316 587.331 314.619 581.533 308.389C575.734 302.097 567.777 298.952 557.662 298.952C550.691 298.952 544.462 300.463 538.972 303.485C533.544 306.508 529.257 310.918 526.111 316.716C522.965 322.514 521.392 329.546 521.392 337.811ZM651.966 423.303V281.187H673.802V423.303H651.966ZM663.069 257.501C658.813 257.501 655.143 256.051 652.059 253.152C649.036 250.253 647.525 246.768 647.525 242.697C647.525 238.626 649.036 235.141 652.059 232.242C655.143 229.343 658.813 227.893 663.069 227.893C667.325 227.893 670.964 229.343 673.987 232.242C677.071 235.141 678.613 238.626 678.613 242.697C678.613 246.768 677.071 250.253 673.987 253.152C670.964 256.051 667.325 257.501 663.069 257.501ZM771.53 426.264C758.206 426.264 746.733 423.118 737.111 416.827C727.489 410.535 720.087 401.869 714.905 390.827C709.724 379.786 707.133 367.172 707.133 352.985C707.133 338.552 709.786 325.814 715.09 314.773C720.457 303.67 727.92 295.004 737.481 288.774C747.104 282.482 758.33 279.337 771.16 279.337C781.152 279.337 790.158 281.187 798.177 284.888C806.195 288.589 812.764 293.77 817.884 300.432C823.004 307.094 826.18 314.866 827.414 323.748H805.578C803.913 317.271 800.212 311.535 794.476 306.538C788.801 301.481 781.152 298.952 771.53 298.952C763.018 298.952 755.554 301.172 749.139 305.613C742.786 309.993 737.82 316.192 734.243 324.211C730.727 332.168 728.969 341.512 728.969 352.245C728.969 363.225 730.696 372.785 734.15 380.927C737.666 389.07 742.601 395.392 748.954 399.895C755.369 404.398 762.894 406.649 771.53 406.649C777.205 406.649 782.355 405.662 786.981 403.688C791.607 401.714 795.524 398.877 798.732 395.176C801.939 391.475 804.221 387.034 805.578 381.853H827.414C826.18 390.241 823.127 397.798 818.254 404.521C813.443 411.183 807.059 416.487 799.102 420.435C791.206 424.321 782.016 426.264 771.53 426.264Z"/>
</mask>
<path d="M341.781 293.03H318.835C317.478 286.43 315.103 280.632 311.711 275.636C308.38 270.639 304.309 266.445 299.498 263.052C294.748 259.598 289.474 257.008 283.676 255.28C277.878 253.553 271.833 252.69 265.541 252.69C254.069 252.69 243.675 255.589 234.361 261.387C225.109 267.185 217.738 275.728 212.248 287.016C206.82 298.304 204.106 312.152 204.106 328.559C204.106 344.967 206.82 358.814 212.248 370.102C217.738 381.39 225.109 389.933 234.361 395.731C243.675 401.529 254.069 404.428 265.541 404.428C271.833 404.428 277.878 403.565 283.676 401.838C289.474 400.111 294.748 397.551 299.498 394.158C304.309 390.704 308.38 386.479 311.711 381.483C315.103 376.425 317.478 370.626 318.835 364.088H341.781C340.054 373.772 336.908 382.439 332.343 390.087C327.779 397.736 322.104 404.243 315.319 409.61C308.534 414.914 300.916 418.955 292.466 421.73C284.077 424.506 275.102 425.894 265.541 425.894C249.381 425.894 235.009 421.946 222.425 414.051C209.842 406.156 199.942 394.929 192.725 380.372C185.509 365.815 181.9 348.544 181.9 328.559C181.9 308.574 185.509 291.303 192.725 276.746C199.942 262.189 209.842 250.963 222.425 243.067C235.009 235.172 249.381 231.224 265.541 231.224C275.102 231.224 284.077 232.612 292.466 235.388C300.916 238.164 308.534 242.235 315.319 247.601C322.104 252.906 327.779 259.382 332.343 267.031C336.908 274.618 340.054 283.284 341.781 293.03ZM397.735 233.815V423.303H375.899V233.815H397.735ZM437.728 423.303V281.187H459.563V423.303H437.728ZM448.831 257.501C444.575 257.501 440.905 256.051 437.82 253.152C434.798 250.253 433.287 246.768 433.287 242.697C433.287 238.626 434.798 235.141 437.82 232.242C440.905 229.343 444.575 227.893 448.831 227.893C453.087 227.893 456.726 229.343 459.748 232.242C462.833 235.141 464.375 238.626 464.375 242.697C464.375 246.768 462.833 250.253 459.748 253.152C456.726 256.051 453.087 257.501 448.831 257.501ZM521.392 337.811V423.303H499.557V281.187H520.652V303.393H522.503C525.833 296.176 530.891 290.378 537.676 285.998C544.462 281.557 553.22 279.337 563.953 279.337C573.576 279.337 581.995 281.31 589.212 285.258C596.429 289.144 602.042 295.066 606.051 303.023C610.061 310.918 612.065 320.91 612.065 333V423.303H590.23V334.481C590.23 323.316 587.331 314.619 581.533 308.389C575.734 302.097 567.777 298.952 557.662 298.952C550.691 298.952 544.462 300.463 538.972 303.485C533.544 306.508 529.257 310.918 526.111 316.716C522.965 322.514 521.392 329.546 521.392 337.811ZM651.966 423.303V281.187H673.802V423.303H651.966ZM663.069 257.501C658.813 257.501 655.143 256.051 652.059 253.152C649.036 250.253 647.525 246.768 647.525 242.697C647.525 238.626 649.036 235.141 652.059 232.242C655.143 229.343 658.813 227.893 663.069 227.893C667.325 227.893 670.964 229.343 673.987 232.242C677.071 235.141 678.613 238.626 678.613 242.697C678.613 246.768 677.071 250.253 673.987 253.152C670.964 256.051 667.325 257.501 663.069 257.501ZM771.53 426.264C758.206 426.264 746.733 423.118 737.111 416.827C727.489 410.535 720.087 401.869 714.905 390.827C709.724 379.786 707.133 367.172 707.133 352.985C707.133 338.552 709.786 325.814 715.09 314.773C720.457 303.67 727.92 295.004 737.481 288.774C747.104 282.482 758.33 279.337 771.16 279.337C781.152 279.337 790.158 281.187 798.177 284.888C806.195 288.589 812.764 293.77 817.884 300.432C823.004 307.094 826.18 314.866 827.414 323.748H805.578C803.913 317.271 800.212 311.535 794.476 306.538C788.801 301.481 781.152 298.952 771.53 298.952C763.018 298.952 755.554 301.172 749.139 305.613C742.786 309.993 737.82 316.192 734.243 324.211C730.727 332.168 728.969 341.512 728.969 352.245C728.969 363.225 730.696 372.785 734.15 380.927C737.666 389.07 742.601 395.392 748.954 399.895C755.369 404.398 762.894 406.649 771.53 406.649C777.205 406.649 782.355 405.662 786.981 403.688C791.607 401.714 795.524 398.877 798.732 395.176C801.939 391.475 804.221 387.034 805.578 381.853H827.414C826.18 390.241 823.127 397.798 818.254 404.521C813.443 411.183 807.059 416.487 799.102 420.435C791.206 424.321 782.016 426.264 771.53 426.264Z" fill="black"/>
<path d="M341.781 293.03V309.314H361.205L357.815 290.189L341.781 293.03ZM318.835 293.03L302.885 296.31L305.558 309.314H318.835V293.03ZM311.711 275.636L298.162 284.668L298.2 284.726L298.239 284.783L311.711 275.636ZM299.498 263.052L289.92 276.222L290.016 276.292L290.114 276.361L299.498 263.052ZM283.676 255.28L279.027 270.887H279.027L283.676 255.28ZM234.361 261.387L225.755 247.563L225.735 247.576L225.714 247.588L234.361 261.387ZM212.248 287.016L197.604 279.894L197.588 279.926L197.572 279.959L212.248 287.016ZM212.248 370.102L197.572 377.159L197.588 377.192L197.604 377.224L212.248 370.102ZM234.361 395.731L225.714 409.53L225.735 409.543L225.755 409.556L234.361 395.731ZM283.676 401.838L279.027 386.231L283.676 401.838ZM299.498 394.158L308.963 407.409L308.979 407.398L308.995 407.386L299.498 394.158ZM311.711 381.483L298.187 372.412L298.174 372.431L298.162 372.45L311.711 381.483ZM318.835 364.088V347.804H305.584L302.891 360.779L318.835 364.088ZM341.781 364.088L357.812 366.947L361.226 347.804H341.781V364.088ZM332.343 390.087L318.36 381.742L332.343 390.087ZM315.319 409.61L325.349 422.439L325.385 422.41L325.421 422.382L315.319 409.61ZM292.466 421.73L287.384 406.259L287.367 406.265L287.35 406.271L292.466 421.73ZM222.425 414.051L213.771 427.845L222.425 414.051ZM192.725 380.372L207.315 373.139L192.725 380.372ZM192.725 276.746L178.136 269.513L192.725 276.746ZM292.466 235.388L287.35 250.848L287.367 250.853L287.384 250.859L292.466 235.388ZM315.319 247.601L305.217 260.373L305.253 260.402L305.289 260.43L315.319 247.601ZM332.343 267.031L318.36 275.376L318.375 275.401L318.39 275.426L332.343 267.031ZM341.781 293.03V276.746H318.835V293.03V309.314H341.781V293.03ZM318.835 293.03L334.786 289.751C333.047 281.293 329.912 273.452 325.183 266.488L311.711 275.636L298.239 284.783C300.295 287.811 301.909 291.567 302.885 296.31L318.835 293.03ZM311.711 275.636L325.26 266.603C320.839 259.971 315.366 254.316 308.882 249.744L299.498 263.052L290.114 276.361C293.252 278.574 295.921 281.308 298.162 284.668L311.711 275.636ZM299.498 263.052L309.076 249.883C302.788 245.31 295.838 241.912 288.325 239.674L283.676 255.28L279.027 270.887C283.11 272.103 286.708 273.886 289.92 276.222L299.498 263.052ZM283.676 255.28L288.325 239.674C280.959 237.48 273.344 236.406 265.541 236.406V252.69V268.974C270.322 268.974 274.797 269.627 279.027 270.887L283.676 255.28ZM265.541 252.69V236.406C251.172 236.406 237.773 240.081 225.755 247.563L234.361 261.387L242.967 275.211C249.577 271.096 256.965 268.974 265.541 268.974V252.69ZM234.361 261.387L225.714 247.588C213.508 255.237 204.224 266.282 197.604 279.894L212.248 287.016L226.892 294.138C231.251 285.174 236.709 279.133 243.008 275.186L234.361 261.387ZM212.248 287.016L197.572 279.959C190.81 294.021 187.822 310.435 187.822 328.559H204.106H220.39C220.39 313.868 222.829 302.587 226.923 294.073L212.248 287.016ZM204.106 328.559H187.822C187.822 346.683 190.81 363.097 197.572 377.159L212.248 370.102L226.923 363.045C222.829 354.532 220.39 343.25 220.39 328.559H204.106ZM212.248 370.102L197.604 377.224C204.224 390.836 213.508 401.881 225.714 409.53L234.361 395.731L243.008 381.933C236.709 377.985 231.251 371.944 226.892 362.98L212.248 370.102ZM234.361 395.731L225.755 409.556C237.773 417.037 251.172 420.713 265.541 420.713V404.428V388.144C256.965 388.144 249.577 386.022 242.967 381.907L234.361 395.731ZM265.541 404.428V420.713C273.344 420.713 280.959 419.638 288.325 417.444L283.676 401.838L279.027 386.231C274.797 387.491 270.322 388.144 265.541 388.144V404.428ZM283.676 401.838L288.325 417.444C295.784 415.222 302.696 411.886 308.963 407.409L299.498 394.158L290.033 380.907C286.8 383.216 283.165 384.999 279.027 386.231L283.676 401.838ZM299.498 394.158L308.995 407.386C315.42 402.773 320.857 397.12 325.26 390.515L311.711 381.483L298.162 372.45C295.903 375.838 293.197 378.635 290.001 380.93L299.498 394.158ZM311.711 381.483L325.235 390.553C329.907 383.588 333.036 375.795 334.779 367.397L318.835 364.088L302.891 360.779C301.92 365.458 300.3 369.261 298.187 372.412L311.711 381.483ZM318.835 364.088V380.372H341.781V364.088V347.804H318.835V364.088ZM341.781 364.088L325.75 361.229C324.332 369.178 321.816 375.951 318.36 381.742L332.343 390.087L346.327 398.432C352 388.926 355.775 378.367 357.812 366.947L341.781 364.088ZM332.343 390.087L318.36 381.742C314.779 387.743 310.404 392.735 305.217 396.838L315.319 409.61L325.421 422.382C333.804 415.751 340.779 407.729 346.327 398.432L332.343 390.087ZM315.319 409.61L305.289 396.781C300.037 400.887 294.104 404.052 287.384 406.259L292.466 421.73L297.548 437.201C307.728 433.857 317.031 428.941 325.349 422.439L315.319 409.61ZM292.466 421.73L287.35 406.271C280.742 408.457 273.506 409.61 265.541 409.61V425.894V442.178C276.698 442.178 287.412 440.555 297.581 437.19L292.466 421.73ZM265.541 425.894V409.61C252.163 409.61 240.843 406.383 231.08 400.257L222.425 414.051L213.771 427.845C229.174 437.51 246.598 442.178 265.541 442.178V425.894ZM222.425 414.051L231.08 400.257C221.279 394.107 213.326 385.265 207.315 373.139L192.725 380.372L178.136 387.605C186.558 404.594 198.406 418.204 213.771 427.845L222.425 414.051ZM192.725 380.372L207.315 373.139C201.44 361.288 198.184 346.601 198.184 328.559H181.9H165.616C165.616 350.487 169.577 370.342 178.136 387.605L192.725 380.372ZM181.9 328.559H198.184C198.184 310.517 201.44 295.83 207.315 283.979L192.725 276.746L178.136 269.513C169.577 286.776 165.616 306.631 165.616 328.559H181.9ZM192.725 276.746L207.315 283.979C213.326 271.853 221.279 263.011 231.08 256.861L222.425 243.067L213.771 229.274C198.406 238.914 186.558 252.524 178.136 269.513L192.725 276.746ZM222.425 243.067L231.08 256.861C240.843 250.735 252.163 247.508 265.541 247.508V231.224V214.94C246.598 214.94 229.174 219.609 213.771 229.274L222.425 243.067ZM265.541 231.224V247.508C273.506 247.508 280.742 248.661 287.35 250.848L292.466 235.388L297.581 219.928C287.412 216.563 276.698 214.94 265.541 214.94V231.224ZM292.466 235.388L287.384 250.859C294.068 253.054 299.977 256.228 305.217 260.373L315.319 247.601L325.421 234.829C317.092 228.241 307.765 223.273 297.548 219.917L292.466 235.388ZM315.319 247.601L305.289 260.43C310.437 264.454 314.79 269.393 318.36 275.376L332.343 267.031L346.327 258.686C340.768 249.372 333.771 241.357 325.349 234.772L315.319 247.601ZM332.343 267.031L318.39 275.426C321.813 281.115 324.327 287.858 325.747 295.872L341.781 293.03L357.815 290.189C355.781 278.71 352.003 268.121 346.297 258.636L332.343 267.031ZM397.735 233.815H414.019V217.531H397.735V233.815ZM397.735 423.303V439.587H414.019V423.303H397.735ZM375.899 423.303H359.615V439.587H375.899V423.303ZM375.899 233.815V217.531H359.615V233.815H375.899ZM397.735 233.815H381.45V423.303H397.735H414.019V233.815H397.735ZM397.735 423.303V407.019H375.899V423.303V439.587H397.735V423.303ZM375.899 423.303H392.183V233.815H375.899H359.615V423.303H375.899ZM375.899 233.815V250.099H397.735V233.815V217.531H375.899V233.815ZM437.728 423.303H421.444V439.587H437.728V423.303ZM437.728 281.187V264.903H421.444V281.187H437.728ZM459.563 281.187H475.848V264.903H459.563V281.187ZM459.563 423.303V439.587H475.848V423.303H459.563ZM437.82 253.152L426.548 264.904L426.607 264.961L426.667 265.017L437.82 253.152ZM437.82 232.242L426.667 220.377L426.607 220.433L426.548 220.49L437.82 232.242ZM459.748 232.242L448.476 243.994L448.535 244.051L448.595 244.107L459.748 232.242ZM459.748 253.152L448.595 241.287L448.535 241.344L448.476 241.4L459.748 253.152ZM437.728 423.303H454.012V281.187H437.728H421.444V423.303H437.728ZM437.728 281.187V297.471H459.563V281.187V264.903H437.728V281.187ZM459.563 281.187H443.279V423.303H459.563H475.848V281.187H459.563ZM459.563 423.303V407.019H437.728V423.303V439.587H459.563V423.303ZM448.831 257.501V241.217C448.694 241.217 448.65 241.206 448.678 241.211C448.691 241.213 448.716 241.218 448.751 241.228C448.786 241.238 448.826 241.252 448.868 241.268C448.91 241.285 448.949 241.303 448.984 241.321C449.019 241.338 449.044 241.354 449.059 241.363C449.091 241.384 449.061 241.37 448.974 241.287L437.82 253.152L426.667 265.017C432.79 270.773 440.455 273.785 448.831 273.785V257.501ZM437.82 253.152L449.093 241.4C448.981 241.294 449.171 241.45 449.36 241.886C449.447 242.085 449.505 242.28 449.538 242.447C449.571 242.612 449.571 242.703 449.571 242.697H433.287H417.003C417.003 251.346 420.428 259.034 426.548 264.904L437.82 253.152ZM433.287 242.697H449.571C449.571 242.692 449.571 242.783 449.538 242.947C449.505 243.115 449.447 243.309 449.36 243.509C449.171 243.944 448.981 244.101 449.093 243.994L437.82 232.242L426.548 220.49C420.428 226.361 417.003 234.048 417.003 242.697H433.287ZM437.82 232.242L448.974 244.107C449.061 244.025 449.091 244.01 449.059 244.031C449.044 244.041 449.019 244.056 448.984 244.074C448.949 244.092 448.91 244.11 448.868 244.126C448.826 244.143 448.786 244.156 448.751 244.166C448.716 244.176 448.691 244.181 448.678 244.184C448.65 244.189 448.694 244.178 448.831 244.178V227.893V211.609C440.455 211.609 432.79 214.622 426.667 220.377L437.82 232.242ZM448.831 227.893V244.178C448.967 244.178 449.006 244.189 448.967 244.182C448.924 244.174 448.838 244.153 448.727 244.109C448.615 244.065 448.525 244.015 448.465 243.976C448.407 243.938 448.412 243.933 448.476 243.994L459.748 232.242L471.021 220.49C464.912 214.63 457.212 211.609 448.831 211.609V227.893ZM459.748 232.242L448.595 244.107C448.727 244.231 448.529 244.077 448.327 243.619C448.233 243.408 448.169 243.198 448.13 243.01C448.092 242.825 448.091 242.713 448.091 242.697H464.375H480.659C480.659 233.935 477.113 226.216 470.902 220.377L459.748 232.242ZM464.375 242.697H448.091C448.091 242.682 448.092 242.569 448.13 242.384C448.169 242.197 448.233 241.986 448.327 241.775C448.529 241.317 448.727 241.163 448.595 241.287L459.748 253.152L470.902 265.017C477.113 259.179 480.659 251.459 480.659 242.697H464.375ZM459.748 253.152L448.476 241.4C448.412 241.462 448.407 241.457 448.465 241.419C448.525 241.38 448.615 241.33 448.727 241.286C448.838 241.241 448.924 241.221 448.967 241.213C449.006 241.206 448.967 241.217 448.831 241.217V257.501V273.785C457.212 273.785 464.912 270.764 471.021 264.904L459.748 253.152ZM521.392 423.303V439.587H537.676V423.303H521.392ZM499.557 423.303H483.273V439.587H499.557V423.303ZM499.557 281.187V264.903H483.273V281.187H499.557ZM520.652 281.187H536.936V264.903H520.652V281.187ZM520.652 303.393H504.368V319.677H520.652V303.393ZM522.503 303.393V319.677H532.922L537.288 310.217L522.503 303.393ZM537.676 285.998L546.507 299.68L546.551 299.652L546.595 299.623L537.676 285.998ZM589.212 285.258L581.397 299.545L581.444 299.57L581.492 299.596L589.212 285.258ZM606.051 303.023L591.509 310.35L591.521 310.373L591.532 310.396L606.051 303.023ZM612.065 423.303V439.587H628.35V423.303H612.065ZM590.23 423.303H573.946V439.587H590.23V423.303ZM581.533 308.389L569.558 319.424L569.585 319.454L569.612 319.483L581.533 308.389ZM538.972 303.485L531.118 289.22L531.084 289.239L531.05 289.258L538.972 303.485ZM526.111 316.716L511.798 308.95L526.111 316.716ZM521.392 337.811H505.108V423.303H521.392H537.676V337.811H521.392ZM521.392 423.303V407.019H499.557V423.303V439.587H521.392V423.303ZM499.557 423.303H515.841V281.187H499.557H483.273V423.303H499.557ZM499.557 281.187V297.471H520.652V281.187V264.903H499.557V281.187ZM520.652 281.187H504.368V303.393H520.652H536.936V281.187H520.652ZM520.652 303.393V319.677H522.503V303.393V287.109H520.652V303.393ZM522.503 303.393L537.288 310.217C539.303 305.851 542.273 302.413 546.507 299.68L537.676 285.998L528.846 272.317C519.509 278.343 512.364 286.5 507.717 296.569L522.503 303.393ZM537.676 285.998L546.595 299.623C549.997 297.396 555.383 295.621 563.953 295.621V279.337V263.052C551.058 263.052 538.926 265.718 528.758 272.373L537.676 285.998ZM563.953 279.337V295.621C571.31 295.621 576.954 297.114 581.397 299.545L589.212 285.258L597.027 270.972C587.036 265.507 575.841 263.052 563.953 263.052V279.337ZM589.212 285.258L581.492 299.596C585.512 301.761 588.864 305.101 591.509 310.35L606.051 303.023L620.594 295.695C615.22 285.03 607.346 276.527 596.932 270.92L589.212 285.258ZM606.051 303.023L591.532 310.396C594.037 315.328 595.781 322.584 595.781 333H612.065H628.35C628.35 319.237 626.085 306.508 620.571 295.649L606.051 303.023ZM612.065 333H595.781V423.303H612.065H628.35V333H612.065ZM612.065 423.303V407.019H590.23V423.303V439.587H612.065V423.303ZM590.23 423.303H606.514V334.481H590.23H573.946V423.303H590.23ZM590.23 334.481H606.514C606.514 320.519 602.841 307.382 593.453 297.295L581.533 308.389L569.612 319.483C571.82 321.856 573.946 326.113 573.946 334.481H590.23ZM581.533 308.389L593.507 297.354C584.063 287.105 571.423 282.667 557.662 282.667V298.952V315.236C564.132 315.236 567.406 317.09 569.558 319.424L581.533 308.389ZM557.662 298.952V282.667C548.259 282.667 539.275 284.729 531.118 289.22L538.972 303.485L546.826 317.75C549.648 316.196 553.123 315.236 557.662 315.236V298.952ZM538.972 303.485L531.05 289.258C522.752 293.878 516.322 300.611 511.798 308.95L526.111 316.716L540.424 324.482C542.191 321.225 544.336 319.137 546.894 317.712L538.972 303.485ZM526.111 316.716L511.798 308.95C507.071 317.662 505.108 327.508 505.108 337.811H521.392H537.676C537.676 331.584 538.859 327.366 540.424 324.482L526.111 316.716ZM651.966 423.303H635.682V439.587H651.966V423.303ZM651.966 281.187V264.903H635.682V281.187H651.966ZM673.802 281.187H690.086V264.903H673.802V281.187ZM673.802 423.303V439.587H690.086V423.303H673.802ZM652.059 253.152L640.786 264.904L640.846 264.961L640.906 265.017L652.059 253.152ZM652.059 232.242L640.906 220.377L640.846 220.433L640.786 220.49L652.059 232.242ZM673.987 232.242L662.714 243.994L662.774 244.051L662.834 244.107L673.987 232.242ZM673.987 253.152L662.834 241.287L662.774 241.344L662.714 241.4L673.987 253.152ZM651.966 423.303H668.25V281.187H651.966H635.682V423.303H651.966ZM651.966 281.187V297.471H673.802V281.187V264.903H651.966V281.187ZM673.802 281.187H657.518V423.303H673.802H690.086V281.187H673.802ZM673.802 423.303V407.019H651.966V423.303V439.587H673.802V423.303ZM663.069 257.501V241.217C662.932 241.217 662.888 241.206 662.916 241.211C662.929 241.213 662.954 241.218 662.989 241.228C663.024 241.238 663.064 241.252 663.106 241.268C663.148 241.285 663.188 241.303 663.222 241.321C663.257 241.338 663.282 241.354 663.297 241.363C663.329 241.384 663.299 241.37 663.212 241.287L652.059 253.152L640.906 265.017C647.028 270.773 654.694 273.785 663.069 273.785V257.501ZM652.059 253.152L663.331 241.4C663.22 241.294 663.409 241.45 663.598 241.886C663.685 242.085 663.743 242.28 663.776 242.447C663.809 242.612 663.809 242.703 663.809 242.697H647.525H631.241C631.241 251.346 634.666 259.034 640.786 264.904L652.059 253.152ZM647.525 242.697H663.809C663.809 242.692 663.809 242.783 663.776 242.947C663.743 243.115 663.685 243.309 663.598 243.509C663.409 243.944 663.22 244.101 663.331 243.994L652.059 232.242L640.786 220.49C634.666 226.361 631.241 234.048 631.241 242.697H647.525ZM652.059 232.242L663.212 244.107C663.299 244.025 663.329 244.01 663.297 244.031C663.282 244.041 663.257 244.056 663.222 244.074C663.188 244.092 663.148 244.11 663.106 244.126C663.064 244.143 663.024 244.156 662.989 244.166C662.954 244.176 662.929 244.181 662.916 244.184C662.888 244.189 662.932 244.178 663.069 244.178V227.893V211.609C654.694 211.609 647.028 214.622 640.906 220.377L652.059 232.242ZM663.069 227.893V244.178C663.206 244.178 663.244 244.189 663.205 244.182C663.163 244.174 663.076 244.153 662.965 244.109C662.853 244.065 662.763 244.015 662.703 243.976C662.645 243.938 662.651 243.933 662.714 243.994L673.987 232.242L685.259 220.49C679.15 214.63 671.45 211.609 663.069 211.609V227.893ZM673.987 232.242L662.834 244.107C662.965 244.231 662.768 244.077 662.565 243.619C662.472 243.408 662.407 243.198 662.369 243.01C662.331 242.825 662.329 242.713 662.329 242.697H678.613H694.897C694.897 233.935 691.352 226.216 685.14 220.377L673.987 232.242ZM678.613 242.697H662.329C662.329 242.682 662.331 242.569 662.369 242.384C662.407 242.197 662.472 241.986 662.565 241.775C662.768 241.317 662.965 241.163 662.834 241.287L673.987 253.152L685.14 265.017C691.352 259.179 694.897 251.459 694.897 242.697H678.613ZM673.987 253.152L662.714 241.4C662.651 241.462 662.645 241.457 662.703 241.419C662.763 241.38 662.853 241.33 662.965 241.286C663.076 241.241 663.163 241.221 663.205 241.213C663.244 241.206 663.206 241.217 663.069 241.217V257.501V273.785C671.45 273.785 679.15 270.764 685.259 264.904L673.987 253.152ZM737.111 416.827L728.2 430.456L737.111 416.827ZM715.09 314.773L700.429 307.687L700.421 307.704L700.412 307.721L715.09 314.773ZM737.481 288.774L746.371 302.417L746.382 302.41L746.393 302.403L737.481 288.774ZM817.884 300.432L830.796 290.509V290.509L817.884 300.432ZM827.414 323.748V340.032H846.116L843.543 321.508L827.414 323.748ZM805.578 323.748L789.807 327.803L792.952 340.032H805.578V323.748ZM794.476 306.538L783.641 318.695L783.71 318.757L783.781 318.818L794.476 306.538ZM749.139 305.613L758.381 319.021L758.395 319.011L758.408 319.002L749.139 305.613ZM734.243 324.21L719.372 317.576L719.36 317.602L719.348 317.629L734.243 324.21ZM734.15 380.927L719.159 387.287L719.18 387.335L719.2 387.383L734.15 380.927ZM748.954 399.895L739.538 413.181L739.568 413.202L739.599 413.223L748.954 399.895ZM786.981 403.688L780.591 388.71L786.981 403.688ZM798.732 395.176L811.037 405.841L798.732 395.176ZM805.578 381.853V365.569H793.01L789.826 377.727L805.578 381.853ZM827.414 381.853L843.525 384.222L846.268 365.569H827.414V381.853ZM818.254 404.521L805.069 394.965L805.061 394.976L805.053 394.987L818.254 404.521ZM799.102 420.435L806.293 435.045L806.316 435.034L806.339 435.023L799.102 420.435ZM771.53 426.264V409.98C760.857 409.98 752.595 407.495 746.023 403.197L737.111 416.827L728.2 430.456C740.872 438.742 755.556 442.548 771.53 442.548V426.264ZM737.111 416.827L746.023 403.197C739.084 398.661 733.627 392.39 729.647 383.91L714.905 390.827L700.164 397.745C706.547 411.347 715.893 422.409 728.2 430.456L737.111 416.827ZM714.905 390.827L729.647 383.91C725.635 375.359 723.418 365.169 723.418 352.985H707.133H690.849C690.849 369.175 693.814 384.214 700.164 397.745L714.905 390.827ZM707.133 352.985H723.418C723.418 340.561 725.693 330.307 729.768 321.825L715.09 314.773L700.412 307.721C693.878 321.322 690.849 336.542 690.849 352.985H707.133ZM715.09 314.773L729.752 321.859C733.935 313.204 739.495 306.898 746.371 302.417L737.481 288.774L728.591 275.131C716.345 283.11 706.978 294.137 700.429 307.687L715.09 314.773ZM737.481 288.774L746.393 302.403C753.065 298.041 761.115 295.621 771.16 295.621V279.337V263.052C755.544 263.052 741.142 266.924 728.57 275.145L737.481 288.774ZM771.16 279.337V295.621C779.106 295.621 785.738 297.082 791.353 299.673L798.177 284.888L805.001 270.103C794.578 265.292 783.198 263.052 771.16 263.052V279.337ZM798.177 284.888L791.353 299.673C797.105 302.328 801.541 305.89 804.972 310.355L817.884 300.432L830.796 290.509C823.988 281.65 815.286 274.85 805.001 270.103L798.177 284.888ZM817.884 300.432L804.972 310.355C808.256 314.627 810.412 319.708 811.285 325.988L827.414 323.748L843.543 321.508C841.948 310.024 837.752 299.56 830.796 290.509L817.884 300.432ZM827.414 323.748V307.464H805.578V323.748V340.032H827.414V323.748ZM805.578 323.748L821.35 319.692C818.754 309.598 813.039 301.112 805.171 294.259L794.476 306.538L783.781 318.818C787.386 321.958 789.072 324.945 789.807 327.803L805.578 323.748ZM794.476 306.538L805.311 294.382C795.924 286.016 784.05 282.667 771.53 282.667V298.952V315.236C778.255 315.236 781.678 316.945 783.641 318.695L794.476 306.538ZM771.53 298.952V282.667C760.021 282.667 749.257 285.726 739.87 292.225L749.139 305.613L758.408 319.002C761.851 316.618 766.014 315.236 771.53 315.236V298.952ZM749.139 305.613L739.897 292.206C730.755 298.507 723.996 307.21 719.372 317.576L734.243 324.21L749.114 330.845C751.645 325.173 754.816 321.478 758.381 319.021L749.139 305.613ZM734.243 324.21L719.348 317.629C714.728 328.084 712.685 339.762 712.685 352.245H728.969H745.253C745.253 343.263 746.726 336.251 749.138 330.792L734.243 324.21ZM728.969 352.245H712.685C712.685 364.899 714.672 376.711 719.159 387.287L734.15 380.927L749.141 374.568C746.72 368.86 745.253 361.551 745.253 352.245H728.969ZM734.15 380.927L719.2 387.383C723.732 397.877 730.425 406.722 739.538 413.181L748.954 399.895L758.37 386.609C754.777 384.062 751.6 380.262 749.1 374.472L734.15 380.927ZM748.954 399.895L739.599 413.223C749.032 419.845 759.903 422.933 771.53 422.933V406.649V390.365C765.886 390.365 761.706 388.95 758.31 386.566L748.954 399.895ZM771.53 406.649V422.933C779.12 422.933 786.482 421.606 793.372 418.666L786.981 403.688L780.591 388.71C778.228 389.718 775.289 390.365 771.53 390.365V406.649ZM786.981 403.688L793.372 418.666C800.208 415.749 806.167 411.461 811.037 405.841L798.732 395.176L786.426 384.511C784.882 386.293 783.007 387.68 780.591 388.71L786.981 403.688ZM798.732 395.176L811.037 405.841C816.029 400.082 819.402 393.345 821.331 385.978L805.578 381.853L789.826 377.727C789.041 380.723 787.85 382.869 786.426 384.511L798.732 395.176ZM805.578 381.853V398.137H827.414V381.853V365.569H805.578V381.853ZM827.414 381.853L811.303 379.483C810.443 385.333 808.368 390.412 805.069 394.965L818.254 404.521L831.439 414.077C837.886 405.183 841.918 395.15 843.525 384.222L827.414 381.853ZM818.254 404.521L805.053 394.987C801.913 399.334 797.649 402.978 791.865 405.847L799.102 420.435L806.339 435.023C816.469 429.997 824.973 423.032 831.455 414.055L818.254 404.521ZM799.102 420.435L791.911 405.825C786.642 408.418 779.996 409.98 771.53 409.98V426.264V442.548C784.036 442.548 795.771 440.224 806.293 435.045L799.102 420.435Z" fill="white" mask="url(#path-3-outside-2_1_31)"/>
<rect x="111" y="423" width="25" height="118" transform="rotate(180 111 423)" fill="#FF1014"/>
<rect x="158" y="352" width="25" height="118" transform="rotate(90 158 352)" fill="#FF1014"/>
</g>
<defs>
<clipPath id="clip0_1_31">
<rect width="856" height="468" fill="white"/>
</clipPath>
</defs>
</svg>
